<svg xmlns="http://www.w3.org/2000/svg" version="1.1" width="160px" height="160px" style="shape-rendering:geometricPrecision; text-rendering:geometricPrecision; image-rendering:optimizeQuality; fill-rule:evenodd; clip-rule:evenodd" xmlns:xlink="http://www.w3.org/1999/xlink">
<g><path style="opacity:1" fill="#656564" d="M 85.5,2.5 C 87.1667,3.16667 88.8333,3.83333 90.5,4.5C 85.9677,4.18178 81.6344,4.51511 77.5,5.5C 76.1667,5.5 75.5,6.16667 75.5,7.5C 73.8333,7.5 72.1667,7.5 70.5,7.5C 70.9175,6.77842 71.5842,6.27842 72.5,6C 71.9056,5.53566 71.2389,5.36899 70.5,5.5C 75.1259,3.33551 80.1259,2.33551 85.5,2.5 Z"/></g>
<g><path style="opacity:1" fill="#ebece4" d="M 77.5,5.5 C 84.7843,4.96519 91.7843,6.13185 98.5,9C 102.905,11.5776 104.572,15.411 103.5,20.5C 102.833,20.5 102.167,20.5 101.5,20.5C 96.6141,19.1225 91.6141,18.2892 86.5,18C 88.9223,15.888 88.9223,13.888 86.5,12C 83.2706,9.38386 79.6039,7.88386 75.5,7.5C 75.5,6.16667 76.1667,5.5 77.5,5.5 Z"/></g>
<g><path style="opacity:1" fill="#cecfca" d="M 69.5,7.5 C 71.7917,8.33951 74.125,9.33951 76.5,10.5C 71.113,12.2603 66.113,14.7603 61.5,18C 56.9072,19.2513 52.2406,20.0847 47.5,20.5C 53.8356,14.6585 61.1689,10.3251 69.5,7.5 Z"/></g>
<g><path style="opacity:1" fill="#4e4e4d" d="M 137.5,31.5 C 136.778,31.0825 136.278,30.4158 136,29.5C 135.295,31.9856 134.462,31.9856 133.5,29.5C 134.043,29.44 134.376,29.1067 134.5,28.5C 132.664,26.8177 131.664,25.151 131.5,23.5C 130.118,20.6057 128.118,18.1057 125.5,16C 114.986,8.74702 103.319,4.91369 90.5,4.5C 88.8333,3.83333 87.1667,3.16667 85.5,2.5C 105.7,0.886333 122.2,7.88633 135,23.5C 136.707,25.9088 137.54,28.5755 137.5,31.5 Z"/></g>
<g><path style="opacity:1" fill="#e6e8e1" d="M 69.5,7.5 C 69.8333,7.5 70.1667,7.5 70.5,7.5C 72.1667,7.5 73.8333,7.5 75.5,7.5C 79.0491,10.2991 82.7158,13.1325 86.5,16C 83.3098,18.3644 80.3098,20.8644 77.5,23.5C 71.27,26.4102 64.77,28.4102 58,29.5C 56.1667,29.3333 54.3333,29.1667 52.5,29C 51.61,26.6087 49.9433,25.1087 47.5,24.5C 47.5,23.1667 47.5,21.8333 47.5,20.5C 52.2406,20.0847 56.9072,19.2513 61.5,18C 66.113,14.7603 71.113,12.2603 76.5,10.5C 74.125,9.33951 71.7917,8.33951 69.5,7.5 Z"/></g>
<g><path style="opacity:1" fill="#d0d1cc" d="M 77.5,5.5 C 81.6344,4.51511 85.9677,4.18178 90.5,4.5C 103.319,4.91369 114.986,8.74702 125.5,16C 128.118,18.1057 130.118,20.6057 131.5,23.5C 127.535,21.1678 123.202,19.8345 118.5,19.5C 113.405,19.2213 108.405,19.5546 103.5,20.5C 104.572,15.411 102.905,11.5776 98.5,9C 91.7843,6.13185 84.7843,4.96519 77.5,5.5 Z"/></g>
<g><path style="opacity:1" fill="#bbbdb8" d="M 75.5,7.5 C 79.6039,7.88386 83.2706,9.38386 86.5,12C 88.9223,13.888 88.9223,15.888 86.5,18C 91.6141,18.2892 96.6141,19.1225 101.5,20.5C 88.6054,24.4494 76.9388,30.7827 66.5,39.5C 66.1667,39.3333 65.8333,39.1667 65.5,39C 66.3805,38.2917 67.0472,37.4584 67.5,36.5C 73.7371,30.7024 80.7371,25.869 88.5,22C 84.6899,21.4127 81.0232,21.9127 77.5,23.5C 80.3098,20.8644 83.3098,18.3644 86.5,16C 82.7158,13.1325 79.0491,10.2991 75.5,7.5 Z"/></g>
<g><path style="opacity:1" fill="#aeafab" d="M 118.5,19.5 C 123.202,19.8345 127.535,21.1678 131.5,23.5C 131.664,25.151 132.664,26.8177 134.5,28.5C 134.376,29.1067 134.043,29.44 133.5,29.5C 132.167,28.5 130.833,27.5 129.5,26.5C 126.61,24.267 123.277,22.9337 119.5,22.5C 119.167,22.5 118.833,22.5 118.5,22.5C 115.023,21.6773 111.356,21.1773 107.5,21C 111.356,20.8227 115.023,20.3227 118.5,19.5 Z"/></g>
<g><path style="opacity:1" fill="#030303" d="M 118.5,22.5 C 118.833,22.5 119.167,22.5 119.5,22.5C 118.737,23.2679 117.737,23.7679 116.5,24C 124.795,36.9013 128.461,51.068 127.5,66.5C 127.33,82.1873 124.996,97.5206 120.5,112.5C 118.833,112.5 117.167,112.5 115.5,112.5C 123.729,87.7588 124.562,62.7588 118,37.5C 115.88,32.7582 113.38,28.2582 110.5,24C 109.668,23.3123 109.002,23.479 108.5,24.5C 115.703,39.1476 119.036,54.6476 118.5,71C 118.399,78.5272 117.899,86.0272 117,93.5C 115.414,99.7693 114.247,105.769 113.5,111.5C 109.144,110.489 105.144,108.656 101.5,106C 96.2862,103.118 91.6195,99.6176 87.5,95.5C 78.9368,83.392 71.1035,70.7253 64,57.5C 62.8011,54.2744 62.3011,50.941 62.5,47.5C 64.137,45.5248 65.8036,43.5248 67.5,41.5C 77.9784,32.5572 89.9784,26.3905 103.5,23C 108.489,22.5007 113.489,22.3341 118.5,22.5 Z"/></g>
<g><path style="opacity:1" fill="#272827" d="M 119.5,22.5 C 123.277,22.9337 126.61,24.267 129.5,26.5C 128.761,26.369 128.094,26.5357 127.5,27C 136.049,41.0542 140.049,56.3875 139.5,73C 139.454,86.0477 137.121,98.2143 132.5,109.5C 132.5,109.833 132.5,110.167 132.5,110.5C 127.213,113.198 121.546,114.198 115.5,113.5C 115.5,113.167 115.5,112.833 115.5,112.5C 117.167,112.5 118.833,112.5 120.5,112.5C 124.996,97.5206 127.33,82.1873 127.5,66.5C 128.461,51.068 124.795,36.9013 116.5,24C 117.737,23.7679 118.737,23.2679 119.5,22.5 Z"/></g>
<g><path style="opacity:1" fill="#262626" d="M 115.5,112.5 C 114.508,112.672 113.842,112.338 113.5,111.5C 114.247,105.769 115.414,99.7693 117,93.5C 117.899,86.0272 118.399,78.5272 118.5,71C 119.036,54.6476 115.703,39.1476 108.5,24.5C 109.002,23.479 109.668,23.3123 110.5,24C 113.38,28.2582 115.88,32.7582 118,37.5C 124.562,62.7588 123.729,87.7588 115.5,112.5 Z"/></g>
<g><path style="opacity:1" fill="#424241" d="M 70.5,5.5 C 71.2389,5.36899 71.9056,5.53566 72.5,6C 71.5842,6.27842 70.9175,6.77842 70.5,7.5C 70.1667,7.5 69.8333,7.5 69.5,7.5C 61.1689,10.3251 53.8356,14.6585 47.5,20.5C 43.6998,22.9626 41.0332,26.296 39.5,30.5C 39.8726,33.5739 40.5392,36.5739 41.5,39.5C 40.3556,37.8998 39.1889,36.2331 38,34.5C 35.0627,38.3736 33.2294,42.7069 32.5,47.5C 33.5,47.5 34.5,47.5 35.5,47.5C 34.4324,48.4345 33.099,48.7678 31.5,48.5C 31.44,47.9569 31.1067,47.6236 30.5,47.5C 29.4822,48.1925 28.4822,48.8592 27.5,49.5C 30.0519,45.7296 32.0519,41.7296 33.5,37.5C 34.9063,37.0269 35.573,36.0269 35.5,34.5C 36.895,27.8853 40.2284,22.3853 45.5,18C 53.0298,12.2351 61.3632,8.06842 70.5,5.5 Z"/></g>
<g><path style="opacity:1" fill="#111111" d="M 129.5,26.5 C 130.833,27.5 132.167,28.5 133.5,29.5C 134.462,31.9856 135.295,31.9856 136,29.5C 136.278,30.4158 136.778,31.0825 137.5,31.5C 138.931,32.7804 139.598,34.4471 139.5,36.5C 139.415,39.6489 140.415,42.3155 142.5,44.5C 143.468,46.6074 143.802,48.9407 143.5,51.5C 143.239,58.0723 143.906,64.4056 145.5,70.5C 145.799,77.2868 145.132,83.9535 143.5,90.5C 142.076,92.5145 141.41,94.8478 141.5,97.5C 139.244,101.012 137.244,104.679 135.5,108.5C 134.391,108.557 133.391,108.89 132.5,109.5C 137.121,98.2143 139.454,86.0477 139.5,73C 140.049,56.3875 136.049,41.0542 127.5,27C 128.094,26.5357 128.761,26.369 129.5,26.5 Z"/></g>
<g><path style="opacity:1" fill="#d1d2cd" d="M 47.5,20.5 C 47.5,21.8333 47.5,23.1667 47.5,24.5C 48.7919,30.4455 52.4586,32.7789 58.5,31.5C 65.9934,31.2445 72.3267,28.5778 77.5,23.5C 81.0232,21.9127 84.6899,21.4127 88.5,22C 80.7371,25.869 73.7371,30.7024 67.5,36.5C 65.5887,37.075 63.922,38.075 62.5,39.5C 57.0634,37.8638 51.8967,38.5304 47,41.5C 45.7485,39.9991 44.7485,38.3325 44,36.5C 43.6667,36.8333 43.3333,37.1667 43,37.5C 42.3299,34.8261 41.1632,32.4927 39.5,30.5C 41.0332,26.296 43.6998,22.9626 47.5,20.5 Z"/></g>
<g><path style="opacity:1" fill="#9d9f9a" d="M 77.5,23.5 C 72.3267,28.5778 65.9934,31.2445 58.5,31.5C 52.4586,32.7789 48.7919,30.4455 47.5,24.5C 49.9433,25.1087 51.61,26.6087 52.5,29C 54.3333,29.1667 56.1667,29.3333 58,29.5C 64.77,28.4102 71.27,26.4102 77.5,23.5 Z"/></g>
<g><path style="opacity:0.455" fill="#868686" d="M 35.5,34.5 C 35.573,36.0269 34.9063,37.0269 33.5,37.5C 33.427,35.9731 34.0937,34.9731 35.5,34.5 Z"/></g>
<g><path style="opacity:1" fill="#c7c8c3" d="M 41.5,39.5 C 42.163,44.1697 40.163,46.8364 35.5,47.5C 34.5,47.5 33.5,47.5 32.5,47.5C 33.2294,42.7069 35.0627,38.3736 38,34.5C 39.1889,36.2331 40.3556,37.8998 41.5,39.5 Z"/></g>
<g><path style="opacity:1" fill="#272727" d="M 72.5,39.5 C 76.4757,49.1467 76.309,58.8134 72,68.5C 68.3774,62.9194 65.5441,56.9194 63.5,50.5C 66.1133,46.5498 69.1133,42.8832 72.5,39.5 Z"/></g>
<g><path style="opacity:0.694" fill="#606060" d="M 139.5,36.5 C 141.585,38.6845 142.585,41.3511 142.5,44.5C 140.415,42.3155 139.415,39.6489 139.5,36.5 Z"/></g>
<g><path style="opacity:1" fill="#cccdc8" d="M 65.5,41.5 C 66.1667,41.5 66.8333,41.5 67.5,41.5C 65.8036,43.5248 64.137,45.5248 62.5,47.5C 61.9826,49.5095 61.316,50.8429 60.5,51.5C 60.5,50.5 60.5,49.5 60.5,48.5C 61.7536,45.9066 63.4202,43.5732 65.5,41.5 Z"/></g>
<g><path style="opacity:1" fill="#5c5d59" d="M 65.5,41.5 C 63.4202,43.5732 61.7536,45.9066 60.5,48.5C 59.7784,48.9175 59.2784,49.5842 59,50.5C 58.984,46.0041 61.1506,43.0041 65.5,41.5 Z"/></g>
<g><path style="opacity:1" fill="#cecfca" d="M 56.5,53.5 C 59.3924,58.2796 62.0591,63.2796 64.5,68.5C 64.1667,68.8333 63.8333,69.1667 63.5,69.5C 61.8076,67.6414 60.3076,65.6414 59,63.5C 59.3799,66.4209 60.5466,69.0876 62.5,71.5C 57.6522,70.0124 52.6522,69.1791 47.5,69C 46.2668,67.3333 44.9335,65.8333 43.5,64.5C 43.1667,63.1667 42.8333,61.8333 42.5,60.5C 42.3347,56.8183 42.5014,53.1516 43,49.5C 44.4659,47.6751 46.2992,47.1751 48.5,48C 49.8742,50.5829 51.3742,53.0829 53,55.5C 53.7096,54.0267 54.8762,53.3601 56.5,53.5 Z"/></g>
<g><path style="opacity:1" fill="#767773" d="M 41.5,39.5 C 45.5472,41.9698 45.2139,45.1365 40.5,49C 37.5184,49.498 34.5184,49.6646 31.5,49.5C 31.5,49.1667 31.5,48.8333 31.5,48.5C 33.099,48.7678 34.4324,48.4345 35.5,47.5C 40.163,46.8364 42.163,44.1697 41.5,39.5 Z"/></g>
<g><path style="opacity:1" fill="#a9aba6" d="M 39.5,30.5 C 41.1632,32.4927 42.3299,34.8261 43,37.5C 43.3333,37.1667 43.6667,36.8333 44,36.5C 44.7485,38.3325 45.7485,39.9991 47,41.5C 51.8967,38.5304 57.0634,37.8638 62.5,39.5C 57.1369,42.8246 55.1369,47.4913 56.5,53.5C 54.8762,53.3601 53.7096,54.0267 53,55.5C 51.3742,53.0829 49.8742,50.5829 48.5,48C 46.2992,47.1751 44.4659,47.6751 43,49.5C 42.5014,53.1516 42.3347,56.8183 42.5,60.5C 40.299,57.9786 37.9657,55.4786 35.5,53C 34.2411,52.0181 32.9078,51.6848 31.5,52C 36.3048,55.4861 40.3048,59.6528 43.5,64.5C 44.9335,65.8333 46.2668,67.3333 47.5,69C 52.6522,69.1791 57.6522,70.0124 62.5,71.5C 65.4969,76.1585 68.4969,80.8252 71.5,85.5C 66.2371,81.5257 61.0704,80.859 56,83.5C 58.7775,88.2772 62.2775,92.4438 66.5,96C 68.8333,96.6667 71.1667,96.6667 73.5,96C 75.1066,94.951 75.7733,93.451 75.5,91.5C 77.8532,93.8599 79.8532,96.5265 81.5,99.5C 81.0158,102.655 79.3491,104.988 76.5,106.5C 80.0906,110.299 84.0906,113.633 88.5,116.5C 91.1332,115.7 93.1332,114.2 94.5,112C 91.8457,108.679 88.8457,105.679 85.5,103C 86.9733,102.29 87.6399,101.124 87.5,99.5C 88.7942,100.29 89.9609,101.29 91,102.5C 91.1667,102.167 91.3333,101.833 91.5,101.5C 89.7224,99.736 88.3891,97.736 87.5,95.5C 91.6195,99.6176 96.2862,103.118 101.5,106C 105.144,108.656 109.144,110.489 113.5,111.5C 113.842,112.338 114.508,112.672 115.5,112.5C 115.5,112.833 115.5,113.167 115.5,113.5C 115.44,114.043 115.107,114.376 114.5,114.5C 110.679,113.088 107.012,111.421 103.5,109.5C 102.287,109.747 101.62,110.414 101.5,111.5C 104.785,115.276 108.785,118.11 113.5,120C 119.856,120.398 126.189,120.065 132.5,119C 133.737,118.768 134.737,118.268 135.5,117.5C 137.646,117.696 137.812,118.696 136,120.5C 133.299,124.252 129.799,126.585 125.5,127.5C 124.167,127.5 122.833,127.5 121.5,127.5C 110.349,128.669 100.016,126.336 90.5,120.5C 72.9681,110.137 58.4681,96.4706 47,79.5C 43.1941,74.6891 38.5274,71.0225 33,68.5C 31.3878,63.6059 30.2211,58.6059 29.5,53.5C 29.3402,51.6455 30.0069,50.3121 31.5,49.5C 34.5184,49.6646 37.5184,49.498 40.5,49C 45.2139,45.1365 45.5472,41.9698 41.5,39.5C 40.5392,36.5739 39.8726,33.5739 39.5,30.5 Z"/></g>
<g><path style="opacity:1" fill="#61625f" d="M 42.5,60.5 C 42.8333,61.8333 43.1667,63.1667 43.5,64.5C 40.3048,59.6528 36.3048,55.4861 31.5,52C 32.9078,51.6848 34.2411,52.0181 35.5,53C 37.9657,55.4786 40.299,57.9786 42.5,60.5 Z"/></g>
<g><path style="opacity:0.447" fill="#838383" d="M 27.5,55.5 C 28.913,58.2186 29.5797,61.2186 29.5,64.5C 27.6937,61.6229 27.0271,58.6229 27.5,55.5 Z"/></g>
<g><path style="opacity:0.616" fill="#5c5c5b" d="M 143.5,51.5 C 145.248,57.5737 145.915,63.907 145.5,70.5C 143.906,64.4056 143.239,58.0723 143.5,51.5 Z"/></g>
<g><path style="opacity:1" fill="#949692" d="M 118.5,19.5 C 115.023,20.3227 111.356,20.8227 107.5,21C 111.356,21.1773 115.023,21.6773 118.5,22.5C 113.489,22.3341 108.489,22.5007 103.5,23C 89.9784,26.3905 77.9784,32.5572 67.5,41.5C 66.8333,41.5 66.1667,41.5 65.5,41.5C 61.1506,43.0041 58.984,46.0041 59,50.5C 59.2784,49.5842 59.7784,48.9175 60.5,48.5C 60.5,49.5 60.5,50.5 60.5,51.5C 59.9569,51.56 59.6236,51.8933 59.5,52.5C 62.8333,59.1667 66.1667,65.8333 69.5,72.5C 69.1543,73.6956 68.6543,73.6956 68,72.5C 69.4866,77.1309 71.8199,81.4642 75,85.5C 75.3333,84.8333 75.6667,84.1667 76,83.5C 77.7524,85.3509 79.2524,87.3509 80.5,89.5C 79.9569,89.56 79.6236,89.8933 79.5,90.5C 82.0622,93.2601 83.3955,96.2601 83.5,99.5C 83.0302,100.463 82.3635,100.463 81.5,99.5C 79.8532,96.5265 77.8532,93.8599 75.5,91.5C 74.6597,89.1475 73.3264,87.1475 71.5,85.5C 68.4969,80.8252 65.4969,76.1585 62.5,71.5C 60.5466,69.0876 59.3799,66.4209 59,63.5C 60.3076,65.6414 61.8076,67.6414 63.5,69.5C 63.8333,69.1667 64.1667,68.8333 64.5,68.5C 62.0591,63.2796 59.3924,58.2796 56.5,53.5C 55.1369,47.4913 57.1369,42.8246 62.5,39.5C 63.922,38.075 65.5887,37.075 67.5,36.5C 67.0472,37.4584 66.3805,38.2917 65.5,39C 65.8333,39.1667 66.1667,39.3333 66.5,39.5C 76.9388,30.7827 88.6054,24.4494 101.5,20.5C 102.167,20.5 102.833,20.5 103.5,20.5C 108.405,19.5546 113.405,19.2213 118.5,19.5 Z"/></g>
<g><path style="opacity:1" fill="#2e2e2e" d="M 90.5,120.5 C 100.016,126.336 110.349,128.669 121.5,127.5C 118.023,128.323 114.356,128.823 110.5,129C 112.81,129.497 115.143,129.663 117.5,129.5C 117.358,132.477 118.025,134.477 119.5,135.5C 121.951,140.74 120.284,143.906 114.5,145C 106.3,146.537 98.6337,145.203 91.5,141C 74.3736,128.874 59.5402,114.374 47,97.5C 44.2337,94.2232 41.067,91.5566 37.5,89.5C 37.5,89.1667 37.5,88.8333 37.5,88.5C 37.9256,86.1384 37.9256,83.4717 37.5,80.5C 37.8333,78.1667 38.1667,75.8333 38.5,73.5C 47.2854,83.7897 56.2854,93.9564 65.5,104C 72.7992,110.8 80.7992,116.633 89.5,121.5C 90.1067,121.376 90.44,121.043 90.5,120.5 Z"/></g>
<g><path style="opacity:0.004" fill="#c6c6c6" d="M 32.5,71.5 C 33.4959,71.4142 34.3292,71.7476 35,72.5C 35.8099,76.3575 35.6433,80.0242 34.5,83.5C 35.0095,79.1869 34.3429,75.1869 32.5,71.5 Z"/></g>
<g><path style="opacity:1" fill="#787976" d="M 62.5,47.5 C 62.3011,50.941 62.8011,54.2744 64,57.5C 71.1035,70.7253 78.9368,83.392 87.5,95.5C 88.3891,97.736 89.7224,99.736 91.5,101.5C 91.3333,101.833 91.1667,102.167 91,102.5C 89.9609,101.29 88.7942,100.29 87.5,99.5C 85.1667,96.1667 82.8333,92.8333 80.5,89.5C 79.2524,87.3509 77.7524,85.3509 76,83.5C 75.6667,84.1667 75.3333,84.8333 75,85.5C 71.8199,81.4642 69.4866,77.1309 68,72.5C 68.6543,73.6956 69.1543,73.6956 69.5,72.5C 66.1667,65.8333 62.8333,59.1667 59.5,52.5C 59.6236,51.8933 59.9569,51.56 60.5,51.5C 61.316,50.8429 61.9826,49.5095 62.5,47.5 Z"/></g>
<g><path style="opacity:1" fill="#1e1e1d" d="M 31.5,48.5 C 31.5,48.8333 31.5,49.1667 31.5,49.5C 30.0069,50.3121 29.3402,51.6455 29.5,53.5C 30.2211,58.6059 31.3878,63.6059 33,68.5C 38.5274,71.0225 43.1941,74.6891 47,79.5C 58.4681,96.4706 72.9681,110.137 90.5,120.5C 90.44,121.043 90.1067,121.376 89.5,121.5C 80.7992,116.633 72.7992,110.8 65.5,104C 56.2854,93.9564 47.2854,83.7897 38.5,73.5C 38.1667,75.8333 37.8333,78.1667 37.5,80.5C 37.9256,83.4717 37.9256,86.1384 37.5,88.5C 36.1266,88.6567 34.7932,88.49 33.5,88C 34.2524,87.3292 34.5858,86.4959 34.5,85.5C 34.5,84.8333 34.5,84.1667 34.5,83.5C 35.6433,80.0242 35.8099,76.3575 35,72.5C 34.3292,71.7476 33.4959,71.4142 32.5,71.5C 30.1663,69.8243 29.1663,67.491 29.5,64.5C 29.5797,61.2186 28.913,58.2186 27.5,55.5C 27.5,53.5 27.5,51.5 27.5,49.5C 28.4822,48.8592 29.4822,48.1925 30.5,47.5C 31.1067,47.6236 31.44,47.9569 31.5,48.5 Z"/></g>
<g><path style="opacity:1" fill="#d1d2cd" d="M 71.5,85.5 C 73.3264,87.1475 74.6597,89.1475 75.5,91.5C 75.7733,93.451 75.1066,94.951 73.5,96C 71.1667,96.6667 68.8333,96.6667 66.5,96C 62.2775,92.4438 58.7775,88.2772 56,83.5C 61.0704,80.859 66.2371,81.5257 71.5,85.5 Z"/></g>
<g><path style="opacity:0.976" fill="#5f605f" d="M 34.5,85.5 C 34.5858,86.4959 34.2524,87.3292 33.5,88C 34.7932,88.49 36.1266,88.6567 37.5,88.5C 37.5,88.8333 37.5,89.1667 37.5,89.5C 31.9651,89.4737 26.6318,90.4737 21.5,92.5C 20.5836,92.4573 19.9169,92.1239 19.5,91.5C 24.545,89.4879 29.545,87.4879 34.5,85.5 Z"/></g>
<g><path style="opacity:0.999" fill="#b9bbb8" d="M 37.5,89.5 C 41.067,91.5566 44.2337,94.2232 47,97.5C 59.5402,114.374 74.3736,128.874 91.5,141C 98.6337,145.203 106.3,146.537 114.5,145C 120.284,143.906 121.951,140.74 119.5,135.5C 119.5,134.5 119.5,133.5 119.5,132.5C 122.312,134.076 124.978,135.91 127.5,138C 128.793,138.49 130.127,138.657 131.5,138.5C 132.278,139.156 132.944,139.989 133.5,141C 133.167,141.5 132.833,142 132.5,142.5C 130.556,143.189 128.556,143.689 126.5,144C 123.5,148.333 119.833,152 115.5,155C 103.123,158.156 91.4563,156.489 80.5,150C 73.098,144.971 66.098,139.471 59.5,133.5C 50.6422,122.476 41.9756,111.31 33.5,100C 27.1856,96.9212 20.519,95.0878 13.5,94.5C 15.0637,92.7489 17.0637,91.7489 19.5,91.5C 19.9169,92.1239 20.5836,92.4573 21.5,92.5C 26.6318,90.4737 31.9651,89.4737 37.5,89.5 Z"/></g>
<g><path style="opacity:0.22" fill="#7f7f7f" d="M 143.5,90.5 C 143.59,93.1522 142.924,95.4855 141.5,97.5C 141.41,94.8478 142.076,92.5145 143.5,90.5 Z"/></g>
<g><path style="opacity:1" fill="#cfd0cb" d="M 80.5,89.5 C 82.8333,92.8333 85.1667,96.1667 87.5,99.5C 87.6399,101.124 86.9733,102.29 85.5,103C 88.8457,105.679 91.8457,108.679 94.5,112C 93.1332,114.2 91.1332,115.7 88.5,116.5C 84.0906,113.633 80.0906,110.299 76.5,106.5C 79.3491,104.988 81.0158,102.655 81.5,99.5C 82.3635,100.463 83.0302,100.463 83.5,99.5C 83.3955,96.2601 82.0622,93.2601 79.5,90.5C 79.6236,89.8933 79.9569,89.56 80.5,89.5 Z"/></g>
<g><path style="opacity:1" fill="#b6b7b3" d="M 135.5,108.5 C 138.025,111.309 138.025,114.309 135.5,117.5C 132.794,117.575 130.127,117.908 127.5,118.5C 128.88,115.627 130.88,113.127 133.5,111C 133.272,110.601 132.938,110.435 132.5,110.5C 132.5,110.167 132.5,109.833 132.5,109.5C 133.391,108.89 134.391,108.557 135.5,108.5 Z"/></g>
<g><path style="opacity:0.976" fill="#353635" d="M 141.5,97.5 C 139.998,101.342 139.332,105.342 139.5,109.5C 139.736,114.452 138.736,119.119 136.5,123.5C 136.5,124.167 136.167,124.5 135.5,124.5C 133.5,124.5 132.5,125.5 132.5,127.5C 130.412,128.939 128.079,129.606 125.5,129.5C 124.833,129.5 124.167,129.5 123.5,129.5C 124.167,128.833 124.833,128.167 125.5,127.5C 129.799,126.585 133.299,124.252 136,120.5C 137.812,118.696 137.646,117.696 135.5,117.5C 138.025,114.309 138.025,111.309 135.5,108.5C 137.244,104.679 139.244,101.012 141.5,97.5 Z"/></g>
<g><path style="opacity:1" fill="#e2e3dc" d="M 115.5,113.5 C 121.546,114.198 127.213,113.198 132.5,110.5C 132.938,110.435 133.272,110.601 133.5,111C 130.88,113.127 128.88,115.627 127.5,118.5C 123.181,119.249 118.848,119.415 114.5,119C 110.003,116.644 105.67,114.144 101.5,111.5C 101.62,110.414 102.287,109.747 103.5,109.5C 107.012,111.421 110.679,113.088 114.5,114.5C 115.107,114.376 115.44,114.043 115.5,113.5 Z"/></g>
<g><path style="opacity:1" fill="#565754" d="M 101.5,111.5 C 105.67,114.144 110.003,116.644 114.5,119C 118.848,119.415 123.181,119.249 127.5,118.5C 130.127,117.908 132.794,117.575 135.5,117.5C 134.737,118.268 133.737,118.768 132.5,119C 126.189,120.065 119.856,120.398 113.5,120C 108.785,118.11 104.785,115.276 101.5,111.5 Z"/></g>
<g><path style="opacity:0.106" fill="#828281" d="M 139.5,109.5 C 140.634,111.966 140.801,114.633 140,117.5C 139.576,120.025 138.41,122.025 136.5,123.5C 138.736,119.119 139.736,114.452 139.5,109.5 Z"/></g>
<g><path style="opacity:0.031" fill="#80807f" d="M 135.5,124.5 C 134.833,125.833 133.833,126.833 132.5,127.5C 132.5,125.5 133.5,124.5 135.5,124.5 Z"/></g>
<g><path style="opacity:1" fill="#0e0e0d" d="M 121.5,127.5 C 122.833,127.5 124.167,127.5 125.5,127.5C 124.833,128.167 124.167,128.833 123.5,129.5C 122.167,129.5 120.833,129.5 119.5,129.5C 119.5,130.5 119.5,131.5 119.5,132.5C 119.5,133.5 119.5,134.5 119.5,135.5C 118.025,134.477 117.358,132.477 117.5,129.5C 115.143,129.663 112.81,129.497 110.5,129C 114.356,128.823 118.023,128.323 121.5,127.5 Z"/></g>
<g><path style="opacity:0.578" fill="#7b7b7b" d="M 123.5,129.5 C 124.167,129.5 124.833,129.5 125.5,129.5C 124.048,130.302 122.382,130.802 120.5,131C 124.345,133.363 128.011,135.863 131.5,138.5C 130.127,138.657 128.793,138.49 127.5,138C 124.978,135.91 122.312,134.076 119.5,132.5C 119.5,131.5 119.5,130.5 119.5,129.5C 120.833,129.5 122.167,129.5 123.5,129.5 Z"/></g>
</svg>
