<svg clip-rule="evenodd" fill-rule="evenodd" height="512" image-rendering="optimizeQuality" shape-rendering="geometricPrecision" text-rendering="geometricPrecision" width="512" xmlns="http://www.w3.org/2000/svg"><path d="m240.5 13.5c23.277-2.5334 34.944 7.6332 35 30.5-.857 9.9277-3.357 19.4277-7.5 28.5-2.166 1.6213-4.666 2.4546-7.5 2.5 1.124.2492 2.124.7492 3 1.5-7.493.1204-8.493 2.287-3 6.5 8.109 5.0694 16.943 7.9028 26.5 8.5 7.384 19.645 14.884 39.312 22.5 59 1.189.929 2.522 1.262 4 1 2.938-11.885 5.272-23.718 7-35.5-.281-2.788-1.615-4.955-4-6.5-4.568-4.402-9.568-8.235-15-11.5.234-1.7324 1.234-2.5658 3-2.5 2.551.8586 5.051 1.8586 7.5 3 2.984-1.3332 3.151-3.1666.5-5.5-2.457-1.5621-5.124-2.5621-8-3-1.017-1.0495-1.184-2.2161-.5-3.5 7.143-1.7766 13.143.2234 18 6 .315-1.4078-.018-2.7411-1-4-3.156-2.157-5.989-4.657-8.5-7.5 2.114-1.518 4.447-1.8513 7-1 6.377 3.039 11.543 7.539 15.5 13.5 1.092-2.5444 1.759-5.2111 2-8 5.634-4.754 8.301-3.4206 8 4-1.252 1.5009-2.252 3.1675-3 5-.867 14.019-1.867 28.019-3 42-3.252 15.779-9.585 30.112-19 43-3.139 3.983-6.973 6.983-11.5 9-4.03-1.863-6.863-4.863-8.5-9-1.455-7.404-3.122-14.738-5-22-3.632-4.634-7.632-8.967-12-13-3.627 16.768-6.294 33.768-8 51-5.109 5.782-10.276 11.616-15.5 17.5 7.703 2.078 15.37 4.411 23 7 6.641 6.396 8.307 13.896 5 22.5 2.584 3.897 3.918 8.23 4 13-3.426 26.587-5.592 53.254-6.5 80 2.036 5.775 3.869 11.608 5.5 17.5-.588 2.851-1.255 5.685-2 8.5 3.993 5.472 6.327 11.639 7 18.5-.784 12.145-1.284 24.311-1.5 36.5-2.997 9.655-5.163 19.488-6.5 29.5.881 11.648 4.714 22.148 11.5 31.5.528 6.145-2.305 9.645-8.5 10.5-7.186 1.055-14.186.388-21-2-1.466-1.552-2.466-3.386-3-5.5 4.58-7.408 7.58-15.408 9-24-.838-15.018-4.338-29.351-10.5-43-.474-10.912-1.641-21.745-3.5-32.5.646-3.812 1.146-7.646 1.5-11.5 2.306-.637 3.473-2.137 3.5-4.5-2.332-2.348-3.832-5.181-4.5-8.5-4.543-31.184-6.543-62.517-6-94 .835-5.677 1.669-11.344 2.5-17-9.66-.759-19.326-.926-29-.5-1.444 1.126-2.11 2.626-2 4.5 5.684 32.437 7.517 65.104 5.5 98-.346 3.076-1.012 6.076-2 9-6.758 3.174-8.758 8.174-6 15 3.038 2.703 5.705 5.703 8 9 .667 9.667.667 19.333 0 29-.906 4.311-2.739 8.144-5.5 11.5-.131 19.098 2.536 38.098 8 57-.403 2.887-1.736 5.221-4 7-8.846 3.381-17.846 4.047-27 2-3.309-1.952-4.809-4.785-4.5-8.5 3.667-8.667 7.333-17.333 11-26 .908-12.256-.425-24.256-4-36-1.385-1.051-2.385-2.384-3-4-1.309-10.523-3.476-20.857-6.5-31 1.336-3.338 2.67-6.672 4-10-1.382-9.237-2.382-18.404-3-27.5 1.146-3.523 1.812-7.19 2-11-.87-17.945-2.703-35.778-5.5-53.5-.333 4.667-.667 9.333-1 14-1.728 3.676-4.061 4.009-7 1-1.287-3.87-2.953-7.536-5-11 .037 7.09.704 14.09 2 21-.725.559-1.558.892-2.5 1-2.383-1.794-5.049-2.794-8-3-2.152-6.312-4.319-12.645-6.5-19-.667-9.333-.667-18.667 0-28 .392-3.127 1.225-6.127 2.5-9-2.7-11.365-4.7-22.865-6-34.5.446-7.453 4.279-12.286 11.5-14.5.167-2.333.333-4.667.5-7-3.608-28.542-5.108-57.209-4.5-86 1.396-4.292 3.896-7.7924 7.5-10.5 11.147-3.9384 22.147-8.2717 33-13 9.914-4.4092 15.914-11.9092 18-22.5-2.793-9.1601-4.293-18.4934-4.5-28 .308-4.5687 2.474-7.5687 6.5-9 1.482 3.6739 3.648 7.0072 6.5 10-1.476-3.7003-3.309-7.3669-5.5-11 .376-1.8829 1.376-3.3829 3-4.5 1.991-.3736 3.658-1.207 5-2.5zm-48 80c3.197.1648 6.53.3314 10 .5.808.3076 1.475.8076 2 1.5 1.106 4.277 1.272 8.61.5 13-3.601 9.738-6.268 19.738-8 30-.662-4.254-2.495-4.92-5.5-2-2.417 8.172-4.75 16.339-7 24.5-3.226 1.198-6.059 3.031-8.5 5.5-.657-19.664-1.157-39.331-1.5-59 1.052.149 2.052-.017 3-.5 3.703-3.367 7.036-7.0342 10-11 1.815-.7568 3.481-1.5902 5-2.5zm21 1c19.643 1.969 39.31 2.3024 59 1 2.193-.1738 4.027.4929 5.5 2 2.531 6.826 4.365 13.826 5.5 21-3.434 16.688-6.601 33.688-9.5 51-.977-3.768-2.477-7.268-4.5-10.5-4.348-.238-8.681.095-13 1-5.344 5.854-8.677 12.688-10 20.5-7.179.411-14.179-.423-21-2.5.643-2.746.976-5.579 1-8.5-1.2-12.307-2.034-24.641-2.5-37-3.825-6.157-8.658-11.323-14.5-15.5 1.804-3.961 3.804-7.794 6-11.5-1.721-3.408-2.388-7.0751-2-11zm70 0c2.971 3.9088 4.305 8.242 4 13 1.61 4.545 2.776 9.212 3.5 14 3.118 5.355 5.451 11.022 7 17 .973 2.14 2.473 3.807 4.5 5 1.003 2.672 2.003 5.338 3 8-1.286 1.79-2.786 3.457-4.5 5-.667 6.667-1.333 6.667-2 0-5.213-7.262-10.047-14.762-14.5-22.5 1.754-2.673 3.088-5.507 4-8.5-1.022-10.497-2.689-20.831-5-31zm50 15c1.25.077 2.083.744 2.5 2 .667 4.667.667 9.333 0 14-1.973 1.14-3.807 2.473-5.5 4-1.569-1.214-2.402-2.881-2.5-5-.667-3-.667-6 0-9 1.583.007 3.249-.326 5-1 .494-1.634.66-3.301.5-5zm-125 13c4.101 6.281 6.268 13.281 6.5 21 .667 8.333.667 16.667 0 25-4.504-3.52-7.337-8.02-8.5-13.5 1.128-5.307 2.128-10.64 3-16-1.606-5.487-1.94-10.987-1-16.5zm113 8c1.817 1.316 3.483 2.816 5 4.5-1.872 4.243-4.372 8.077-7.5 11.5.754-5.285 1.588-10.618 2.5-16zm-123 18c.67 6.411 1.67 12.911 3 19.5-3.418 7.934-3.918 16.1-1.5 24.5.785 1.786 1.951 3.286 3.5 4.5 6.497 3.414 12.83 7.081 19 11-1.085 2.172-2.419 4.172-4 6-5.817 1.94-11.483 4.273-17 7-1.549 1.214-2.715 2.714-3.5 4.5-.379 9.429-.546 18.763-.5 28 .44 2.265 1.106 4.432 2 6.5-.654 2.385-.654 4.885 0 7.5-2.364 3.255-4.198 6.922-5.5 11-2.071-7.881-4.738-15.548-8-23-.167-2-.333-4-.5-6 1.729-13.206 3.729-26.373 6-39.5-.115-2.042-.449-4.042-1-6 1.882-9.921 3.549-19.921 5-30-.361-2.449-1.028-4.782-2-7 3.871-5.501 5.538-11.668 5-18.5zm120 15c4.297.788 5.13 3.121 2.5 7-2.911 3.49-5.578 7.156-8 11-1.489 1.832-3.322 2.665-5.5 2.5-2.702-2.403-4.369-5.403-5-9 1.893-2.954 3.393-6.121 4.5-9.5 2.064 1.091 4.231 1.258 6.5.5 1.675-.985 3.342-1.819 5-2.5zm-100 15c.689-1.274 1.523-1.274 2.5 0 .667 2.333.667 4.667 0 7-.698-2.504-1.531-4.837-2.5-7zm32 3c6.813-.991 13.813-1.325 21-1-1.631 20.546-4.298 21.046-8 1.5-4.321-.499-8.654-.666-13-.5zm-71 15c2.485 2.214 5.485 3.381 9 3.5-.608.87-1.441 1.37-2.5 1.5-2.047-1.109-4.213-1.776-6.5-2-.143 1.762.191 3.429 1 5-2.373 2.87-4.873 5.537-7.5 8-1.383 4.58-2.383 9.247-3 14-2.71-6.862-3.043-13.862-1-21 4.865-1.501 8.365-4.501 10.5-9zm6 17c.997-.03 1.664.47 2 1.5-2.348 10.407-4.181 20.907-5.5 31.5-.347 1.68-1.347 2.68-3 3-3.748-3.416-4.415-7.416-2-12 2.667-1.333 4.667-3.333 6-6 1.378-5.932 2.211-11.932 2.5-18zm93 12c1.911.074 3.078 1.074 3.5 3 .333 4.667.667 9.333 1 14 2.492 3.815 3.992 7.982 4.5 12.5-3.096 25.387-5.596 50.887-7.5 76.5-3.217 1.553-6.717 2.553-10.5 3-.809 1.571-1.143 3.238-1 5 4.346-.166 8.679.001 13 .5-1.96 4.41-2.96 9.077-3 14 .427 4.841.927 9.674 1.5 14.5 2.488.912 4.155-.088 5-3 3.137 2.511 4.304 5.511 3.5 9-.11 1.874.556 3.374 2 4.5-.916.374-1.75.874-2.5 1.5-.334 17.014-1 34.014-2 51-.459 6.421-1.459 12.754-3 19-2.454-1.513-4.121-.846-5 2-1.438-18.978-2.771-37.978-4-57-.752-8.595-2.585-16.928-5.5-25 .969-2.073 1.635-4.239 2-6.5-1.606-4.63-2.606-9.464-3-14.5.094-2.189.761-4.189 2-6-3.378-6.295-5.878-12.962-7.5-20-1.243-12.333-2.41-24.667-3.5-37 .137-1.607.804-2.941 2-4 5.561-2.574 11.061-5.241 16.5-8 5.071-6.876 7.071-14.543 6-23-1.892-1.554-3.392-3.388-4.5-5.5.67-6.984.67-13.817 0-20.5zm-98 30c1.725.343 2.225 1.343 1.5 3-1.039-.744-1.539-1.744-1.5-3zm22 14c6.763 2.613 13.763 4.78 21 6.5-.916.374-1.75.874-2.5 1.5-2.941 18.192-4.107 36.525-3.5 55-5.264-.798-9.764.535-13.5 4-.963-20.755-2.796-41.421-5.5-62h4c0-1.667 0-3.333 0-5zm-15 2c3.237 6.357 4.071 13.024 2.5 20-.667-1.333-1.333-2.667-2-4 .199-5.386.033-10.72-.5-16zm40 16c.722.418 1.222 1.084 1.5 2 1.392 11.102.392 21.769-3 32 .467-11.315.967-22.648 1.5-34zm-23 51c2.928.698 5.928.864 9 .5 3.833 1.167 6.333 3.667 7.5 7.5.871 7.276.371 14.442-1.5 21.5-.018 2.379.649 4.546 2 6.5-1.409 6.066-2.076 12.233-2 18.5.614 18.561 1.948 37.061 4 55.5-.495 2.211-1.662 2.545-3.5 1-1.763.475-3.43 1.142-5 2-.333-7.333-.667-14.667-1-22-4.289-16.54-7.789-33.207-10.5-50 .729-2.476 1.396-4.976 2-7.5-1.291-7.774-2.124-15.607-2.5-23.5-.5-1-1-2-1.5-3 1.288-2.239 2.288-4.572 3-7z" opacity=".901"/><path d="m194.5 121.5c2.45.374 3.45 1.874 3 4.5.056 3.013-.944 5.513-3 7.5-.915-.828-1.581-1.828-2-3 1.433-2.833 2.1-5.833 2-9z" opacity=".654"/>
<g id="chat-bubble">
    <path d="M320 40 L480 40 Q490 40 490 50 L490 80 Q490 90 480 90 L330 90 L320 100 L310 90 L320 90 Q310 90 310 80 L310 50 Q310 40 320 40 Z" 
          fill="white" 
          stroke="black" 
          stroke-width="2">
        <animate attributeName="opacity"
                 values="0;1;1;0"
                 dur="4s"
                 repeatCount="indefinite"
                 begin="0s"/>
    </path>
    
    <text x="325" 
          y="72" 
          font-family="Arial" 
          font-size="16" 
          fill="black">
        Hi! Nice to meet you!
        <animate attributeName="opacity"
                 values="0;1;1;0"
                 dur="4s"
                 repeatCount="indefinite"
                 begin="0s"/>
    </text>
</g>
</svg>